HIERARCHY
ROOT mug3
{
	OFFSET 0.000000 0.000000 0.000000
	CHANNELS 6 Xposition Yposition Zposition Yrotation Xrotation Zrotation
	End Site
	{
		OFFSET 0.000000 0.000000 0.000000
	}
}
MOTION
Frames: 120
Frame Time: 0.008333334
2.214911 3.575825 3.472070 -104.427100 0.635736 4.144566 
2.215129 3.576122 3.472599 -104.476600 0.600164 4.194911 
2.215356 3.576196 3.473177 -104.503500 0.634109 4.180536 
2.215205 3.576241 3.473584 -104.503400 0.637569 4.164879 
2.214642 3.576306 3.473911 -104.496200 0.637024 4.157615 
2.213913 3.576370 3.474187 -104.475800 0.645368 4.123781 
2.213904 3.576144 3.474045 -104.396300 0.659538 4.011938 
2.213398 3.576131 3.474418 -104.413800 0.651677 4.027863 
2.212892 3.576118 3.474792 -104.431400 0.643820 4.043790 
2.212920 3.576188 3.475008 -104.432300 0.659309 4.042042 
2.212900 3.576550 3.475567 -104.452600 0.667104 4.080399 
2.213354 3.576548 3.475920 -104.430600 0.652329 4.092201 
2.213462 3.576479 3.476336 -104.437000 0.634748 4.092224 
2.213583 3.576330 3.476573 -104.404700 0.620548 4.075717 
2.213308 3.576588 3.476765 -104.433400 0.603163 4.147961 
2.213184 3.576775 3.476547 -104.402700 0.544060 4.179759 
2.212712 3.576302 3.476901 -104.426600 0.603821 4.115849 
2.212571 3.576692 3.476518 -104.463000 0.655282 4.124812 
2.211898 3.576917 3.475957 -104.488900 0.633215 4.195094 
2.212318 3.576387 3.475585 -104.401100 0.629660 4.140312 
2.212137 3.576235 3.475232 -104.411500 0.652831 4.126520 
2.211979 3.576202 3.475008 -104.400100 0.647976 4.118529 
2.212054 3.576341 3.474481 -104.370500 0.681411 4.124816 
2.211833 3.576375 3.474494 -104.415700 0.660012 4.115872 
2.211401 3.576382 3.474399 -104.420200 0.666008 4.119720 
2.210750 3.576484 3.474617 -104.463500 0.683161 4.143754 
2.210099 3.576586 3.474835 -104.506800 0.700332 4.167775 
2.209891 3.576613 3.474762 -104.477700 0.710505 4.164489 
2.209630 3.576590 3.474809 -104.485400 0.715073 4.187559 
2.209326 3.576614 3.474994 -104.524700 0.714449 4.187228 
2.208710 3.576824 3.475012 -104.550000 0.682277 4.208944 
2.208348 3.576869 3.474868 -104.506800 0.700721 4.203939 
2.207925 3.576641 3.475055 -104.502900 0.741224 4.158203 
2.207292 3.576725 3.475073 -104.499400 0.749775 4.178216 
2.206689 3.576723 3.475104 -104.477000 0.759853 4.182346 
2.205930 3.576886 3.474840 -104.484500 0.751016 4.196661 
2.205473 3.577139 3.474516 -104.470900 0.764136 4.226644 
2.205437 3.577118 3.474226 -104.460000 0.752325 4.235799 
2.205458 3.577114 3.474112 -104.487700 0.806969 4.191577 
2.205716 3.577025 3.473650 -104.464400 0.774608 4.201252 
2.205880 3.577094 3.473210 -104.471500 0.763981 4.195799 
2.205856 3.577096 3.472979 -104.489300 0.771072 4.186507 
2.205790 3.577117 3.472425 -104.447100 0.784517 4.180670 
2.205597 3.577005 3.472461 -104.480700 0.771488 4.170021 
2.205095 3.577199 3.472360 -104.438100 0.853914 4.125243 
2.204660 3.577176 3.472745 -104.515500 0.804508 4.134890 
2.204223 3.577191 3.472752 -104.522900 0.790881 4.153789 
2.204152 3.577318 3.473081 -104.524300 0.872839 4.132122 
2.203959 3.577120 3.473008 -104.488200 0.795266 4.166986 
2.203733 3.577330 3.472773 -104.538600 0.777451 4.167222 
2.203819 3.577283 3.472823 -104.524500 0.817532 4.155824 
2.203999 3.577374 3.472139 -104.455200 0.796049 4.171350 
2.204158 3.577329 3.472246 -104.470900 0.795097 4.156116 
2.203777 3.577276 3.471617 -104.483700 0.816119 4.121644 
2.203582 3.577276 3.471586 -104.543000 0.766398 4.143026 
2.203415 3.577244 3.471568 -104.585400 0.749990 4.158959 
2.203180 3.577201 3.471487 -104.604700 0.757757 4.116621 
2.203211 3.577136 3.471160 -104.526000 0.782862 4.129739 
2.203440 3.577191 3.471097 -104.512200 0.785975 4.159289 
2.203393 3.577110 3.471248 -104.506100 0.761783 4.148427 
2.203388 3.577088 3.471691 -104.523600 0.787715 4.140079 
2.203645 3.577023 3.472034 -104.456900 0.815950 4.144980 
2.203687 3.577023 3.472338 -104.482600 0.807913 4.145451 
2.203644 3.577035 3.472258 -104.514200 0.796237 4.177382 
2.203725 3.577103 3.471895 -104.465900 0.804589 4.193015 
2.203665 3.577204 3.472092 -104.507000 0.785263 4.215759 
2.203529 3.577235 3.471973 -104.576300 0.774962 4.183738 
2.203676 3.577267 3.471494 -104.486800 0.789612 4.174672 
2.203690 3.577252 3.471480 -104.485000 0.797323 4.155352 
2.203610 3.577215 3.471552 -104.532200 0.780648 4.173539 
2.203669 3.577229 3.471212 -104.479600 0.791719 4.175196 
2.203740 3.577111 3.471116 -104.460700 0.800428 4.181892 
2.203851 3.577175 3.470931 -104.463400 0.776646 4.180538 
2.203898 3.577169 3.470796 -104.462100 0.768247 4.189008 
2.203690 3.577218 3.470588 -104.462900 0.786265 4.185121 
2.203767 3.577184 3.470522 -104.467100 0.766712 4.199559 
2.203861 3.577226 3.470641 -104.451600 0.791098 4.169263 
2.203997 3.577195 3.470531 -104.445600 0.785355 4.166380 
2.204129 3.577161 3.470124 -104.501600 0.834565 4.134773 
2.204259 3.577199 3.470004 -104.494400 0.839524 4.137773 
2.204612 3.577310 3.469710 -104.465200 0.806093 4.200004 
2.204417 3.577183 3.469443 -104.501400 0.814913 4.166000 
2.204911 3.577225 3.469091 -104.485400 0.815082 4.208519 
2.205051 3.577273 3.468730 -104.489800 0.777938 4.232680 
2.205226 3.577154 3.468598 -104.503900 0.808009 4.252995 
2.205884 3.577091 3.468120 -104.454200 0.764290 4.226935 
2.206091 3.577059 3.468089 -104.448800 0.782165 4.213586 
2.206297 3.577028 3.468057 -104.443400 0.800043 4.200238 
2.206234 3.576798 3.467818 -104.414200 0.757171 4.253283 
2.206106 3.576858 3.468181 -104.417100 0.748828 4.231789 
2.205442 3.577099 3.468585 -104.486700 0.776542 4.249342 
2.205859 3.576883 3.468884 -104.426100 0.786270 4.191649 
2.205856 3.577182 3.469325 -104.400600 0.760003 4.195587 
2.205065 3.577277 3.469666 -104.481100 0.815500 4.211174 
2.204771 3.577236 3.469622 -104.484100 0.822018 4.191561 
2.203922 3.577085 3.469299 -104.473100 0.808161 4.195638 
2.202785 3.576943 3.469536 -104.509100 0.899392 4.159038 
2.202388 3.576894 3.469082 -104.510600 0.906181 4.175468 
2.202835 3.577040 3.468593 -104.508800 0.849365 4.190362 
2.203833 3.577056 3.468240 -104.517800 0.838231 4.222987 
2.204623 3.577061 3.467739 -104.519500 0.801443 4.259879 
2.205334 3.577069 3.467144 -104.534900 0.823285 4.288532 
2.205774 3.577266 3.466771 -104.527300 0.775353 4.302659 
2.205581 3.577184 3.466964 -104.516000 0.800729 4.312419 
2.204809 3.577088 3.467119 -104.519400 0.800705 4.332461 
2.203904 3.577055 3.467363 -104.509000 0.805705 4.300116 
2.203390 3.577077 3.467566 -104.512300 0.812233 4.293163 
2.202868 3.577072 3.467671 -104.516800 0.785106 4.322134 
2.202859 3.577250 3.467952 -104.540400 0.815645 4.295013 
2.202911 3.577194 3.467793 -104.525300 0.779171 4.316356 
2.203164 3.577281 3.467928 -104.552500 0.804443 4.293752 
2.203070 3.577234 3.467659 -104.556800 0.805871 4.293716 
2.203226 3.576739 3.467023 -104.506800 0.834102 4.270765 
2.202636 3.576714 3.466147 -104.491800 0.796422 4.268314 
2.202333 3.576770 3.465600 -104.462500 0.770244 4.260260 
2.202241 3.576611 3.465189 -104.472500 0.760864 4.271130 
2.202170 3.576707 3.464462 -104.462400 0.757934 4.284842 
2.202260 3.576704 3.464068 -104.477700 0.764882 4.295257 
2.202160 3.576631 3.463983 -104.478300 0.774368 4.299847 
2.202237 3.576767 3.463639 -104.485100 0.766641 4.289607 
